<svg width="106" height="45" viewBox="0 0 106 45" fill="none" xmlns="http://www.w3.org/2000/svg">
<path id="&#208;&#155;&#208;&#158;&#208;&#147;&#208;&#158;" fill-rule="evenodd" clip-rule="evenodd" d="M22.4442 0.198063C22.4117 0.307077 22.3011 0.719842 22.1986 1.11549L22.012 1.8347L20.547 2.20056C19.7414 2.4018 18.6661 2.70301 18.1578 2.86986C17.0523 3.23255 16.963 3.19706 15.89 1.96907C15.0319 0.986673 14.3507 0.316901 14.2098 0.316901C14.0838 0.316901 12.9585 0.895563 12.7306 1.07731C12.6249 1.1616 12.1614 1.42463 11.7005 1.66183C11.1186 1.9613 10.8626 2.18884 10.8626 2.40639C10.8626 2.74215 11.5741 4.9687 11.8272 5.42472C11.9112 5.57604 11.9798 5.79391 11.9798 5.90894C11.9798 6.10146 8.46396 9.66549 8.27404 9.66549C8.22791 9.66549 7.6243 9.4782 6.93291 9.24909C6.24136 9.02012 5.40154 8.77928 5.0667 8.714C4.48702 8.60086 4.43994 8.62352 4.0818 9.1865C3.87511 9.5118 3.43525 10.2842 3.10472 10.9032L2.5035 12.0283L3.53085 13.0004C4.096 13.535 4.71988 14.0812 4.91747 14.214C5.37058 14.5187 5.3835 15.1235 4.96423 16.3996C4.46851 17.9081 4.15936 19.0285 4.15936 19.3166C4.15936 19.6107 2.89341 20.0662 1.61644 20.2318C1.21552 20.2838 0.687881 20.426 0.443851 20.5482L0 20.7702L0.0448479 22.6968L0.0895362 24.6234L1.12694 24.8365C4.34498 25.4974 4.06648 25.3917 4.17836 25.9937C4.3603 26.9726 4.80415 28.5935 4.97157 28.8897C5.06143 29.0489 5.17076 29.5124 5.21481 29.9196L5.29461 30.6602L4.19719 31.6109C2.57213 33.0189 2.51292 33.1157 2.82334 33.8557C2.96331 34.1897 3.12387 34.4987 3.18005 34.5423C3.23623 34.5858 3.38961 34.8354 3.52128 35.0968C3.65279 35.3583 3.81431 35.6435 3.88006 35.7306C4.56539 36.6373 4.55693 36.6316 4.96136 36.4679C5.57933 36.2179 7.98803 35.493 8.20094 35.493C8.30628 35.493 9.13142 36.2416 10.0344 37.1567C10.9376 38.0717 11.7449 38.8204 11.8282 38.8204C12.0197 38.8204 12.0287 39.7225 11.8383 39.8393C11.7605 39.887 11.6462 40.1942 11.5846 40.522C11.5229 40.8499 11.4175 41.1893 11.3505 41.2764C11.2835 41.3636 11.1481 41.7557 11.0498 42.1479C10.8792 42.8286 10.8902 42.8753 11.2927 43.1778C11.5246 43.3521 11.9145 43.6017 12.1592 43.7324C12.4039 43.8631 12.9805 44.1743 13.4408 44.4237L14.2776 44.8775L15.6573 43.3993L17.0373 41.9211L17.9001 42.1897C19.5462 42.7021 20.9997 43.0848 21.4761 43.1312C21.9487 43.1772 22.1016 43.4389 22.4525 44.8019C22.4905 44.9498 23.1323 45 24.9793 45H27.4551L27.5459 44.5643C27.8411 43.1483 27.8132 43.185 28.6808 43.0791C29.1256 43.0248 30.1871 42.7575 31.0397 42.4849C32.8654 41.9013 32.9613 41.8934 33.2508 42.3036C33.646 42.8639 35.5085 44.8415 35.641 44.8415C35.7117 44.8415 36.4912 44.4316 37.3733 43.9305C38.9163 43.0537 38.9741 43.0015 38.9004 42.544C38.7805 41.8006 38.4637 40.6928 38.208 40.1223C38.0797 39.8361 37.9972 39.4439 38.0246 39.2508C38.053 39.0514 38.8337 38.1706 39.8302 37.2136L41.5858 35.5277L42.304 35.7302C42.699 35.8415 43.525 36.0788 44.1394 36.2573C45.2359 36.576 45.2625 36.5764 45.5758 36.282C45.7514 36.1171 46.0708 35.6403 46.2856 35.2226C46.5004 34.8048 46.8057 34.2738 46.9639 34.0425C47.3677 33.4521 47.3227 33.0062 46.8127 32.5485C46.3799 32.1598 46.3461 32.1557 44.3788 32.2545C43.2816 32.3097 41.5971 32.4501 40.6355 32.5664C38.9661 32.7686 38.8668 32.8017 38.4318 33.3036C37.6614 34.1926 36.6414 35.2345 36.1101 35.6755C34.8957 36.6832 31.8436 38.5013 31.3608 38.5045C31.2788 38.5051 30.9969 38.6167 30.7342 38.7526C29.5436 39.369 26.4855 39.7699 23.7903 39.6629C22.0846 39.5952 20.9547 39.3796 19.2417 38.7951C14.8032 37.2806 10.7571 33.4943 9.02512 29.2342C7.21684 24.7868 7.23264 19.6693 9.06662 15.7326C9.22047 15.4022 9.38374 15.0964 9.42939 15.0528C9.4752 15.0092 9.60431 14.7665 9.71651 14.5135C10.3449 13.0964 12.2658 10.7659 13.9748 9.34732C15.3464 8.20886 17.968 6.79247 19.8003 6.20018C21.025 5.80421 23.7638 5.38732 25.1408 5.38732C26.6685 5.38732 29.5078 5.97042 31.1524 6.62213C33.7149 7.63748 34.708 8.29109 36.8776 10.3904C37.9748 11.4522 39.018 12.3649 39.1958 12.4186C39.3736 12.4723 41.0925 12.5881 43.0155 12.6757L46.5122 12.8351L46.894 12.4791C47.1908 12.2021 47.2548 12.0186 47.1816 11.6547C47.1297 11.3972 47.033 11.1473 46.9668 11.0995C46.9004 11.0515 46.7574 10.8341 46.6488 10.6162C46.5405 10.3983 46.2711 9.93486 46.0503 9.58627C45.8294 9.23768 45.607 8.86389 45.5559 8.75551C45.4509 8.53352 45.1783 8.58042 43.501 9.10854C41.3909 9.77292 41.733 9.88479 39.7587 7.88435C38.7902 6.90306 37.9973 5.99847 37.9964 5.87377C37.9956 5.74923 38.1316 5.21445 38.2987 4.68539C38.8844 2.83072 38.9907 2.41178 38.9251 2.21625C38.8651 2.03736 38.1807 1.62412 36.2863 0.622553L35.6151 0.267782L34.2114 1.73266L32.8078 3.19738L32.0896 2.95954C31.1645 2.6531 29.1444 2.12577 28.3903 1.99394C27.8997 1.90822 27.7885 1.81426 27.712 1.42099C27.6619 1.16239 27.5791 0.736796 27.5283 0.475352L27.4357 0H24.9696C23.1347 0 22.4883 0.0507042 22.4442 0.198063ZM21.6357 6.65081C21.3723 6.72671 20.7619 6.8991 20.2791 7.0341C19.3526 7.29301 19.3119 7.30901 17.8053 8.01032C16.3452 8.68991 14.3965 9.98239 14.8319 9.98239C14.9206 9.98239 15.0354 9.91505 15.0866 9.83282C15.2464 9.57613 17.7266 8.38505 18.9103 7.99669C20.8125 7.37239 21.8567 7.24278 24.3061 7.3266C26.2876 7.39426 26.7728 7.46683 28.0421 7.88482C31.0991 8.8913 32.4619 9.70495 34.5153 11.7496C35.8962 13.1246 36.9815 14.5545 37.2927 15.4093C37.388 15.6714 38.3689 15.6852 55.1307 15.6597C64.886 15.6448 72.1135 15.5805 71.1918 15.5168C70.2701 15.4531 67.5409 15.2908 65.127 15.1564C62.713 15.0219 58.7988 14.8023 56.4287 14.6684C54.0586 14.5345 51.5449 14.3956 50.8427 14.3596C50.1404 14.3236 47.4831 14.1824 44.9374 14.0459C42.3918 13.9093 39.9579 13.7947 39.5286 13.7914C38.829 13.7858 38.6967 13.7248 38.2517 13.2018C36.5127 11.1579 34.4826 9.29773 33.3387 8.70005C31.6122 7.79783 30.4533 7.28414 29.7717 7.11871C29.3348 7.01271 28.8766 6.84729 28.7534 6.75095C28.4779 6.53546 22.3363 6.4491 21.6357 6.65081ZM13.097 19.8063V21.0739H13.8819C15.2143 21.0739 15.1717 20.9988 15.1736 23.3488C15.1746 24.4943 15.2204 25.7013 15.2753 26.0314L15.3752 26.6314L16.7498 26.586L18.1245 26.5405L18.2043 23.8468L18.2841 21.1532L19.2378 21.1045C19.7624 21.0779 20.246 20.9709 20.3127 20.8668C20.4578 20.6404 20.4787 19.1435 20.3418 18.7894C20.2575 18.5712 19.7827 18.5387 16.671 18.5387H13.097V19.8063ZM21.3963 22.5792V26.6197H24.5722H27.7482L27.8113 25.8671C27.9366 24.3746 27.968 24.4014 26.0953 24.4014C25.189 24.4014 24.4121 24.3445 24.3688 24.275C24.3256 24.2054 24.3548 24.0451 24.4338 23.9185C24.5419 23.7456 24.9262 23.6884 25.9794 23.6884H27.3813V22.5792V21.4701L25.8651 21.3908C24.6592 21.3278 24.3489 21.263 24.3489 21.0739C24.3489 20.8811 24.6572 20.8277 25.9848 20.7911L27.6207 20.746V19.6423V18.5387H24.5085H21.3963V22.5792ZM28.5783 18.6105C28.5783 18.7236 28.9617 19.5599 29.0539 19.6479C29.2728 19.8566 30.5644 22.6036 30.525 22.7765C30.5002 22.8849 30.0974 23.6336 29.6299 24.4402C28.2941 26.7451 28.2657 26.6197 30.1247 26.6197H31.6925L31.903 26.1474C32.0188 25.8877 32.1834 25.4242 32.2686 25.1174C32.354 24.8108 32.5149 24.5599 32.6261 24.5599C32.8571 24.5599 33.2693 25.3453 33.4375 26.1054L33.5513 26.6197H35.2144C36.1292 26.6197 36.8776 26.5803 36.8776 26.5321C36.8776 26.4839 36.5003 25.7886 36.0392 24.9872C34.5804 22.4512 34.6076 22.9633 35.8068 20.6052L36.8576 18.5387H35.2093H33.5611L33.1937 19.5717C32.9916 20.1399 32.7503 20.5801 32.6574 20.5499C32.5645 20.5198 32.3977 20.2153 32.2868 19.8734C31.8433 18.5064 31.8952 18.5387 30.1474 18.5387C29.2844 18.5387 28.5783 18.5711 28.5783 18.6105ZM37.8352 22.5792V26.6197H39.2716H40.708V25.3521V24.0845L41.6257 24.076C43.6755 24.0566 44.8423 23.0745 44.8524 21.3603C44.8596 20.1239 44.4221 19.4104 43.3537 18.9163C42.6178 18.5761 42.3275 18.5417 40.1893 18.5403L37.8352 18.5387V22.5792ZM46.1344 22.5792V26.6197H49.3265H52.5185V25.5106V24.4014H50.7629C49.1137 24.4014 49.0073 24.3822 49.0073 24.0845C49.0073 23.8937 49.1185 23.7619 49.2866 23.7532C49.4401 23.7454 50.1045 23.7275 50.7629 23.7136L51.9599 23.6884V22.5792V21.4701L50.4836 21.4244C49.148 21.3832 49.0073 21.3498 49.0073 21.0735C49.0073 20.7948 49.1499 20.7642 50.6432 20.723L52.2791 20.6778L52.3263 19.6083L52.3734 18.5387H49.254H46.1344V22.5792ZM53.7953 22.5792V26.6197H59.4611H65.127V22.5792V18.5387H63.6906H62.2542V21.3908V24.243H61.6157H60.9773V21.3908V18.5387H59.5409H58.1045V21.3908V24.243H57.3863H56.6681V21.3908V18.5387H55.2317H53.7953V22.5792ZM66.8826 22.5792V26.6197H70.0819H73.2812L73.2341 25.5502L73.1868 24.4806L71.4711 24.4356C69.9214 24.3951 69.7554 24.3621 69.7554 24.0961C69.7554 23.6925 70.1086 23.5917 71.1122 23.7088C71.5809 23.7635 72.1497 23.7621 72.3762 23.7057C72.7551 23.6112 72.7878 23.535 72.7878 22.7477C72.7878 21.3851 72.7947 21.3908 71.1747 21.3908C69.8619 21.3908 69.7554 21.3671 69.7554 21.0739C69.7554 20.7781 69.8619 20.757 71.3514 20.757H72.9474V19.6479V18.5387H69.915H66.8826V22.5792ZM74.3838 22.5792V26.6197H75.8202H77.2567V25.2898C77.2567 24.2233 77.3066 23.941 77.5091 23.8638C77.9437 23.6982 79.0992 23.7589 79.2995 23.9577C79.4157 24.0731 79.4911 24.6339 79.4911 25.3838V26.6197H80.8477H82.2043V22.5792V18.5387H80.8477H79.4911L79.4887 19.7667C79.4872 20.442 79.4267 21.0877 79.3541 21.2015C79.2636 21.3432 78.9254 21.3929 78.2792 21.3599L77.3364 21.3116L77.2903 19.9252L77.2442 18.5387H75.814H74.3838V22.5792ZM83.8003 22.5792V26.6197H85.399H86.9979L87.8904 24.7766C88.525 23.4662 88.8233 22.9967 88.9225 23.1525C88.9995 23.2729 89.0633 24.1051 89.0647 25.0018L89.0671 26.6321L90.4636 26.5863L91.8601 26.5405V22.5792V18.618L90.2977 18.5725L88.7352 18.5272L88.1714 19.7609C87.0471 22.2219 86.9408 22.3984 86.8038 22.031C86.7365 21.85 86.6897 21.1864 86.6999 20.5561C86.7103 19.9258 86.7084 19.2142 86.6959 18.9745L86.6731 18.5387H85.2367H83.8003V22.5792ZM93.3764 22.5792V26.6197H96.5542H99.732L99.7942 25.6294C99.8286 25.0848 99.8306 24.5855 99.799 24.5202C99.7674 24.455 98.9959 24.4014 98.0846 24.4014C96.3692 24.4014 95.9223 24.2382 96.4964 23.8216C96.7008 23.6732 97.0264 23.6375 97.5494 23.7064C97.9658 23.7613 98.565 23.7579 98.881 23.6992L99.4554 23.5922L99.4083 22.5311L99.3614 21.4701L97.8452 21.3908C96.6392 21.3278 96.329 21.263 96.329 21.0739C96.329 20.8811 96.6373 20.8277 97.9649 20.7911L99.6008 20.746V19.6423V18.5387H96.4886H93.3764V22.5792ZM102.314 20.744C102.314 21.7321 102.207 21.8662 101.419 21.8662H100.718V22.8961V23.9261H101.337C102.081 23.9261 102.274 24.1244 102.342 24.958L102.394 25.5898H103.272H104.149L104.198 24.9287C104.256 24.1355 104.432 23.9658 105.269 23.8983L105.905 23.8468L105.953 22.8565L106 21.8662H105.212C104.328 21.8662 104.229 21.7537 104.229 20.744V20.1232H103.272H102.314V20.744ZM41.7323 20.6948C41.8827 20.7521 41.9848 20.9779 41.9848 21.2533C41.9848 21.6086 41.886 21.7529 41.5584 21.8767C40.9185 22.1181 40.708 21.9598 40.708 21.2373C40.708 20.6674 40.7495 20.5986 41.0939 20.5986C41.3062 20.5986 41.5935 20.6418 41.7323 20.6948ZM42.4735 29.4322C37.2734 29.4798 37.2048 29.4905 36.9459 30.2999C36.6607 31.1923 34.2312 33.9482 32.9895 34.788C32.7385 34.9579 32.4367 35.1876 32.3189 35.2985C31.8214 35.7676 29.172 36.9412 27.6028 37.3877C26.072 37.8235 25.691 37.8697 23.6374 37.8697C21.3312 37.8697 20.8962 37.7986 18.6071 37.0464C17.4709 36.6731 15.1422 35.541 14.9755 35.2808C14.8871 35.1431 14.8569 35.1428 14.855 35.2795C14.8522 35.4926 16.1481 36.3619 17.4063 36.991C17.889 37.2323 18.4101 37.494 18.5642 37.5725C19.452 38.0244 21.3827 38.485 23.0721 38.6482C24.6363 38.7993 25.3383 38.7913 26.9025 38.6045C28.5972 38.4021 30.3015 37.9784 31.1026 37.5607C31.2504 37.4836 31.7346 37.2429 32.1786 37.0258C34.6282 35.8276 35.8486 34.834 38.0459 32.249C38.5271 31.6829 38.7596 31.5317 39.15 31.5317C39.4219 31.5317 40.0813 31.462 40.6151 31.3767C41.149 31.2913 43.5462 31.15 45.9423 31.0625C48.3382 30.9751 51.0674 30.831 52.0071 30.7424C52.9467 30.654 55.1878 30.5051 56.9873 30.4118C62.3687 30.1323 71.1765 29.6106 72.6282 29.4851C73.9143 29.3741 52.875 29.3371 42.4735 29.4322Z" fill="#656565"/>
</svg>
