<svg width="107" height="45" viewBox="0 0 107 45" fill="none" xmlns="http://www.w3.org/2000/svg">
<path fill-rule="evenodd" clip-rule="evenodd" d="M22.656 0.198063C22.6231 0.307077 22.5114 0.719842 22.408 1.11549L22.2197 1.8347L20.7409 2.20056C19.9276 2.4018 18.8422 2.70301 18.3291 2.86986C17.2131 3.23255 17.1231 3.19706 16.0399 1.96907C15.1737 0.986673 14.4861 0.316901 14.3438 0.316901C14.2167 0.316901 13.0807 0.895563 12.8507 1.07731C12.744 1.1616 12.2762 1.42463 11.8109 1.66183C11.2235 1.9613 10.9651 2.18884 10.9651 2.40639C10.9651 2.74215 11.6833 4.9687 11.9388 5.42472C12.0236 5.57604 12.0928 5.79391 12.0928 5.90894C12.0928 6.10146 8.54381 9.66549 8.35209 9.66549C8.30553 9.66549 7.69623 9.4782 6.99831 9.24909C6.30024 9.02012 5.4525 8.77928 5.11449 8.714C4.52935 8.60086 4.48183 8.62352 4.1203 9.1865C3.91167 9.5118 3.46766 10.2842 3.13401 10.9032L2.52712 12.0283L3.56416 13.0004C4.13464 13.535 4.76441 14.0812 4.96386 14.214C5.42124 14.5187 5.43429 15.1235 5.01106 16.3996C4.51067 17.9081 4.1986 19.0285 4.1986 19.3166C4.1986 19.6107 2.9207 20.0662 1.63169 20.2318C1.22699 20.2838 0.69437 20.426 0.448038 20.5482L0 20.7702L0.045271 22.6968L0.0903809 24.6234L1.13757 24.8365C4.38597 25.4974 4.10484 25.3917 4.21777 25.9937C4.40144 26.9726 4.84947 28.5935 5.01847 28.8897C5.10918 29.0489 5.21954 29.5124 5.264 29.9196L5.34455 30.6602L4.23678 31.6109C2.5964 33.0189 2.53663 33.1157 2.84998 33.8557C2.99127 34.1897 3.15334 34.4987 3.21005 34.5423C3.26676 34.5858 3.42158 34.8354 3.5545 35.0968C3.68725 35.3583 3.85029 35.6435 3.91667 35.7306C4.60846 36.6373 4.59992 36.6316 5.00816 36.4679C5.63197 36.2179 8.06339 35.493 8.27831 35.493C8.38464 35.493 9.21756 36.2416 10.1291 37.1567C11.0408 38.0717 11.8557 38.8204 11.9398 38.8204C12.1331 38.8204 12.1421 39.7225 11.9499 39.8393C11.8715 39.887 11.7561 40.1942 11.6939 40.522C11.6316 40.8499 11.5253 41.1893 11.4576 41.2764C11.3899 41.3636 11.2533 41.7557 11.1541 42.1479C10.9818 42.8286 10.993 42.8753 11.3993 43.1778C11.6334 43.3521 12.0269 43.6017 12.2739 43.7324C12.5209 43.8631 13.103 44.1743 13.5676 44.4237L14.4123 44.8775L15.8051 43.3993L17.198 41.9211L18.0689 42.1897C19.7306 42.7021 21.1978 43.0848 21.6787 43.1312C22.1557 43.1772 22.3101 43.4389 22.6643 44.8019C22.7027 44.9498 23.3505 45 25.215 45H27.7141L27.8057 44.5643C28.1038 43.1483 28.0756 43.185 28.9514 43.0791C29.4004 43.0248 30.4719 42.7575 31.3325 42.4849C33.1754 41.9013 33.2722 41.8934 33.5645 42.3036C33.9634 42.8639 35.8435 44.8415 35.9772 44.8415C36.0486 44.8415 36.8354 44.4316 37.7259 43.9305C39.2835 43.0537 39.3418 43.0015 39.2673 42.544C39.1464 41.8006 38.8266 40.6928 38.5685 40.1223C38.4389 39.8361 38.3556 39.4439 38.3834 39.2508C38.412 39.0514 39.2 38.1706 40.206 37.2136L41.9781 35.5277L42.7031 35.7302C43.1018 35.8415 43.9356 36.0788 44.5558 36.2573C45.6626 36.576 45.6895 36.5764 46.0058 36.282C46.183 36.1171 46.5054 35.6403 46.7222 35.2226C46.9391 34.8048 47.2473 34.2738 47.4069 34.0425C47.8145 33.4521 47.7691 33.0062 47.2544 32.5485C46.8175 32.1598 46.7833 32.1557 44.7975 32.2545C43.6899 32.3097 41.9896 32.4501 41.0189 32.5664C39.3337 32.7686 39.2335 32.8017 38.7943 33.3036C38.0167 34.1926 36.987 35.2345 36.4507 35.6755C35.2249 36.6832 32.144 38.5013 31.6567 38.5045C31.5739 38.5051 31.2893 38.6167 31.0242 38.7526C29.8223 39.369 26.7353 39.7699 24.0147 39.6629C22.293 39.5952 21.1523 39.3796 19.4232 38.7951C14.9428 37.2806 10.8586 33.4943 9.11026 29.2342C7.28492 24.7868 7.30087 19.6693 9.15215 15.7326C9.30746 15.4022 9.47227 15.0964 9.51835 15.0528C9.56458 15.0092 9.69492 14.7665 9.80818 14.5135C10.4425 13.0964 12.3815 10.7659 14.1067 9.34732C15.4912 8.20886 18.1376 6.79247 19.9871 6.20018C21.2234 5.80421 23.988 5.38732 25.378 5.38732C26.9201 5.38732 29.7862 5.97042 31.4463 6.62213C34.033 7.63748 35.0354 8.29109 37.2255 10.3904C38.3331 11.4522 39.3861 12.3649 39.5656 12.4186C39.745 12.4723 41.4801 12.5881 43.4213 12.6757L46.951 12.8351L47.3364 12.4791C47.636 12.2021 47.7006 12.0186 47.6267 11.6547C47.5743 11.3972 47.4767 11.1473 47.4098 11.0995C47.3428 11.0515 47.1985 10.8341 47.0889 10.6162C46.9795 10.3983 46.7076 9.93486 46.4848 9.58627C46.2618 9.23768 46.0372 8.86389 45.9857 8.75551C45.8797 8.53352 45.6045 8.58042 43.9114 9.10854C41.7814 9.77292 42.1267 9.88479 40.1338 7.88435C39.1562 6.90306 38.3558 5.99847 38.3548 5.87377C38.354 5.74923 38.4913 5.21445 38.66 4.68539C39.2512 2.83072 39.3585 2.41178 39.2923 2.21625C39.2317 2.03736 38.5409 1.62412 36.6286 0.622553L35.9511 0.267782L34.5342 1.73266L33.1173 3.19738L32.3923 2.95954C31.4585 2.6531 29.4194 2.12577 28.6581 1.99394C28.1629 1.90822 28.0506 1.81426 27.9734 1.42099C27.9229 1.16239 27.8392 0.736796 27.788 0.475352L27.6946 0H25.2051C23.3529 0 22.7004 0.0507042 22.656 0.198063ZM21.8398 6.65081C21.574 6.72671 20.9577 6.8991 20.4704 7.0341C19.5352 7.29301 19.4941 7.30901 17.9732 8.01032C16.4994 8.68991 14.5323 9.98239 14.9718 9.98239C15.0614 9.98239 15.1772 9.91505 15.2289 9.83282C15.3902 9.57613 17.8938 8.38505 19.0887 7.99669C21.0088 7.37239 22.0629 7.24278 24.5354 7.3266C26.5356 7.39426 27.0253 7.46683 28.3066 7.88482C31.3925 8.8913 32.7681 9.70495 34.8409 11.7496C36.2348 13.1246 37.3304 14.5545 37.6445 15.4093C37.7407 15.6714 38.7309 15.6852 55.6508 15.6597C65.4981 15.6448 72.7938 15.5805 71.8634 15.5168C70.933 15.4531 68.1781 15.2908 65.7414 15.1564C63.3046 15.0219 59.3535 14.8023 56.9611 14.6684C54.5686 14.5345 52.0312 14.3956 51.3223 14.3596C50.6134 14.3236 47.931 14.1824 45.3614 14.0459C42.7917 13.9093 40.3348 13.7947 39.9015 13.7914C39.1953 13.7858 39.0618 13.7248 38.6126 13.2018C36.8572 11.1579 34.8079 9.29773 33.6533 8.70005C31.9104 7.79783 30.7406 7.28414 30.0525 7.11871C29.6116 7.01271 29.149 6.84729 29.0247 6.75095C28.7466 6.53546 22.547 6.4491 21.8398 6.65081ZM13.2206 19.8063V21.0739H14.0129C15.3578 21.0739 15.3148 20.9988 15.3167 23.3488C15.3177 24.4943 15.3639 25.7013 15.4194 26.0314L15.5202 26.6314L16.9078 26.586L18.2954 26.5405L18.376 23.8468L18.4565 21.1532L19.4193 21.1045C19.9489 21.0779 20.437 20.9709 20.5044 20.8668C20.6508 20.6404 20.6719 19.1435 20.5337 18.7894C20.4486 18.5712 19.9693 18.5387 16.8282 18.5387H13.2206V19.8063ZM21.5981 22.5792V26.6197H24.804H28.01L28.0737 25.8671C28.2001 24.3746 28.2319 24.4014 26.3414 24.4014C25.4267 24.4014 24.6424 24.3445 24.5987 24.275C24.5551 24.2054 24.5846 24.0451 24.6643 23.9185C24.7734 23.7456 25.1613 23.6884 26.2245 23.6884H27.6396V22.5792V21.4701L26.1091 21.3908C24.8918 21.3278 24.5786 21.263 24.5786 21.0739C24.5786 20.8811 24.8899 20.8277 26.2299 20.7911L27.8813 20.746V19.6423V18.5387H24.7397H21.5981V22.5792ZM28.8479 18.6105C28.8479 18.7236 29.2349 19.5599 29.328 19.6479C29.5489 19.8566 30.8527 22.6036 30.8129 22.7765C30.788 22.8849 30.3813 23.6336 29.9095 24.4402C28.561 26.7451 28.5323 26.6197 30.4089 26.6197H31.9914L32.2039 26.1474C32.3209 25.8877 32.487 25.4242 32.573 25.1174C32.6592 24.8108 32.8216 24.5599 32.9339 24.5599C33.167 24.5599 33.5832 25.3453 33.753 26.1054L33.8679 26.6197H35.5466C36.4701 26.6197 37.2255 26.5803 37.2255 26.5321C37.2255 26.4839 36.8446 25.7886 36.3792 24.9872C34.9067 22.4512 34.9341 22.9633 36.1446 20.6052L37.2053 18.5387H35.5414H33.8777L33.5068 19.5717C33.3029 20.1399 33.0593 20.5801 32.9655 20.5499C32.8717 20.5198 32.7034 20.2153 32.5914 19.8734C32.1437 18.5064 32.196 18.5387 30.4318 18.5387C29.5607 18.5387 28.8479 18.5711 28.8479 18.6105ZM38.1921 22.5792V26.6197H39.6421H41.092V25.3521V24.0845L42.0184 24.076C44.0875 24.0566 45.2654 23.0745 45.2755 21.3603C45.2828 20.1239 44.8412 19.4104 43.7627 18.9163C43.0198 18.5761 42.7268 18.5417 40.5684 18.5403L38.1921 18.5387V22.5792ZM46.5697 22.5792V26.6197H49.7918H53.0139V25.5106V24.4014H51.2418C49.577 24.4014 49.4696 24.3822 49.4696 24.0845C49.4696 23.8937 49.5819 23.7619 49.7515 23.7532C49.9065 23.7454 50.5772 23.7275 51.2418 23.7136L52.4501 23.6884V22.5792V21.4701L50.9598 21.4244C49.6117 21.3832 49.4696 21.3498 49.4696 21.0735C49.4696 20.7948 49.6136 20.7642 51.1209 20.723L52.7723 20.6778L52.82 19.6083L52.8675 18.5387H49.7187H46.5697V22.5792ZM54.3028 22.5792V26.6197H60.0221H65.7414V22.5792V18.5387H64.2914H62.8414V21.3908V24.243H62.197H61.5526V21.3908V18.5387H60.1026H58.6527V21.3908V24.243H57.9277H57.2027V21.3908V18.5387H55.7528H54.3028V22.5792ZM67.5135 22.5792V26.6197H70.7431H73.9725L73.9249 25.5502L73.8773 24.4806L72.1454 24.4356C70.581 24.3951 70.4135 24.3621 70.4135 24.0961C70.4135 23.6925 70.77 23.5917 71.783 23.7088C72.2562 23.7635 72.8304 23.7621 73.059 23.7057C73.4415 23.6112 73.4745 23.535 73.4745 22.7477C73.4745 21.3851 73.4814 21.3908 71.8462 21.3908C70.5209 21.3908 70.4135 21.3671 70.4135 21.0739C70.4135 20.7781 70.5209 20.757 72.0245 20.757H73.6356V19.6479V18.5387H70.5746H67.5135V22.5792ZM75.0856 22.5792V26.6197H76.5355H77.9855V25.2898C77.9855 24.2233 78.0359 23.941 78.2403 23.8638C78.679 23.6982 79.8455 23.7589 80.0476 23.9577C80.1649 24.0731 80.241 24.6339 80.241 25.3838V26.6197H81.6104H82.9798V22.5792V18.5387H81.6104H80.241L80.2386 19.7667C80.2371 20.442 80.176 21.0877 80.1027 21.2015C80.0114 21.3432 79.67 21.3929 79.0177 21.3599L78.066 21.3116L78.0195 19.9252L77.9729 18.5387H76.5292H75.0856V22.5792ZM84.5909 22.5792V26.6197H86.2047H87.8186L88.7195 24.7766C89.3601 23.4662 89.6612 22.9967 89.7614 23.1525C89.8391 23.2729 89.9035 24.1051 89.905 25.0018L89.9074 26.6321L91.3171 26.5863L92.7267 26.5405V22.5792V18.618L91.1495 18.5725L89.5723 18.5272L89.0032 19.7609C87.8682 22.2219 87.761 22.3984 87.6227 22.031C87.5547 21.85 87.5075 21.1864 87.5178 20.5561C87.5283 19.9258 87.5264 19.2142 87.5138 18.9745L87.4908 18.5387H86.0408H84.5909V22.5792ZM94.2573 22.5792V26.6197H97.465H100.673L100.736 25.6294C100.77 25.0848 100.772 24.5855 100.741 24.5202C100.709 24.455 99.9298 24.4014 99.0099 24.4014C97.2783 24.4014 96.8272 24.2382 97.4067 23.8216C97.6131 23.6732 97.9418 23.6375 98.4697 23.7064C98.89 23.7613 99.4948 23.7579 99.8138 23.6992L100.394 23.5922L100.346 22.5311L100.299 21.4701L98.7682 21.3908C97.5509 21.3278 97.2377 21.263 97.2377 21.0739C97.2377 20.8811 97.549 20.8277 98.8891 20.7911L100.54 20.746V19.6423V18.5387H97.3988H94.2573V22.5792ZM103.279 20.744C103.279 21.7321 103.171 21.8662 102.376 21.8662H101.668V22.8961V23.9261H102.293C103.044 23.9261 103.238 24.1244 103.307 24.958L103.36 25.5898H104.246H105.132L105.181 24.9287C105.24 24.1355 105.418 23.9658 106.262 23.8983L106.904 23.8468L106.952 22.8565L107 21.8662H106.204C105.312 21.8662 105.213 21.7537 105.213 20.744V20.1232H104.246H103.279V20.744ZM42.126 20.6948C42.2778 20.7521 42.3809 20.9779 42.3809 21.2533C42.3809 21.6086 42.2812 21.7529 41.9504 21.8767C41.3045 22.1181 41.092 21.9598 41.092 21.2373C41.092 20.6674 41.1339 20.5986 41.4816 20.5986C41.6959 20.5986 41.9859 20.6418 42.126 20.6948ZM42.8742 29.4322C37.625 29.4798 37.5557 29.4905 37.2944 30.2999C37.0065 31.1923 34.5542 33.9482 33.3008 34.788C33.0473 34.9579 32.7427 35.1876 32.6238 35.2985C32.1216 35.7676 29.4472 36.9412 27.8632 37.3877C26.3179 37.8235 25.9333 37.8697 23.8604 37.8697C21.5324 37.8697 21.0934 37.7986 18.7826 37.0464C17.6357 36.6731 15.285 35.541 15.1168 35.2808C15.0276 35.1431 14.9971 35.1428 14.9952 35.2795C14.9923 35.4926 16.3005 36.3619 17.5705 36.991C18.0578 37.2323 18.5838 37.494 18.7393 37.5725C19.6355 38.0244 21.5844 38.485 23.2897 38.6482C24.8688 38.7993 25.5773 38.7913 27.1563 38.6045C28.8669 38.4021 30.5874 37.9784 31.396 37.5607C31.5452 37.4836 32.034 37.2429 32.4822 37.0258C34.9548 35.8276 36.1868 34.834 38.4048 32.249C38.8905 31.6829 39.1252 31.5317 39.5193 31.5317C39.7938 31.5317 40.4594 31.462 40.9983 31.3767C41.5372 31.2913 43.957 31.15 46.3757 31.0625C48.7942 30.9751 51.5492 30.831 52.4978 30.7424C53.4462 30.654 55.7085 30.5051 57.5249 30.4118C62.9571 30.1323 71.848 29.6106 73.3134 29.4851C74.6116 29.3741 53.3738 29.3371 42.8742 29.4322Z" fill="#FAFAFA"/>
</svg>
